<mxfile host="app.diagrams.net" modified="2023-05-26T06:15:04.365Z" agent="Mozilla/5.0 (Windows NT 10.0; Win64; x64) AppleWebKit/537.36 (KHTML, like Gecko) Chrome/112.0.0.0 Whale/3.20.182.14 Safari/537.36" etag="Gm4qpqfhePfGdQzdXcTB" version="21.3.4" type="github">
  <diagram name="페이지-1" id="PQJVYO83aRbSZr_arh7O">
    <mxGraphModel dx="1050" dy="581" grid="1" gridSize="10" guides="1" tooltips="1" connect="1" arrows="1" fold="1" page="1" pageScale="1" pageWidth="827" pageHeight="1169" math="0" shadow="0">
      <root>
        <mxCell id="0" />
        <mxCell id="1" parent="0" />
        <mxCell id="fwr-p7-KlYJy_eXXNo2Y-11" style="rounded=0;orthogonalLoop=1;jettySize=auto;html=1;exitX=1;exitY=0.3333333333333333;exitDx=0;exitDy=0;exitPerimeter=0;entryX=0;entryY=0.5;entryDx=0;entryDy=0;endArrow=none;endFill=0;" parent="1" source="fwr-p7-KlYJy_eXXNo2Y-1" target="fwr-p7-KlYJy_eXXNo2Y-7" edge="1">
          <mxGeometry relative="1" as="geometry" />
        </mxCell>
        <mxCell id="fwr-p7-KlYJy_eXXNo2Y-16" style="rounded=0;orthogonalLoop=1;jettySize=auto;html=1;exitX=1;exitY=1;exitDx=0;exitDy=0;exitPerimeter=0;endArrow=none;endFill=0;" parent="1" source="fwr-p7-KlYJy_eXXNo2Y-1" target="fwr-p7-KlYJy_eXXNo2Y-9" edge="1">
          <mxGeometry relative="1" as="geometry" />
        </mxCell>
        <mxCell id="fwr-p7-KlYJy_eXXNo2Y-17" style="rounded=0;orthogonalLoop=1;jettySize=auto;html=1;exitX=0.5;exitY=0.5;exitDx=0;exitDy=0;exitPerimeter=0;endArrow=none;endFill=0;" parent="1" source="fwr-p7-KlYJy_eXXNo2Y-1" target="fwr-p7-KlYJy_eXXNo2Y-8" edge="1">
          <mxGeometry relative="1" as="geometry" />
        </mxCell>
        <mxCell id="fwr-p7-KlYJy_eXXNo2Y-18" style="rounded=0;orthogonalLoop=1;jettySize=auto;html=1;exitX=0.75;exitY=0.1;exitDx=0;exitDy=0;exitPerimeter=0;endArrow=none;endFill=0;" parent="1" source="fwr-p7-KlYJy_eXXNo2Y-1" target="fwr-p7-KlYJy_eXXNo2Y-6" edge="1">
          <mxGeometry relative="1" as="geometry" />
        </mxCell>
        <mxCell id="fwr-p7-KlYJy_eXXNo2Y-1" value="이용자&lt;br&gt;" style="shape=umlActor;verticalLabelPosition=bottom;verticalAlign=top;html=1;outlineConnect=0;" parent="1" vertex="1">
          <mxGeometry x="40" y="120" width="40" height="80" as="geometry" />
        </mxCell>
        <mxCell id="fwr-p7-KlYJy_eXXNo2Y-3" value="회원관리" style="shape=umlFrame;whiteSpace=wrap;html=1;pointerEvents=0;width=220;height=40;" parent="1" vertex="1">
          <mxGeometry x="100" y="40" width="690" height="630" as="geometry" />
        </mxCell>
        <mxCell id="fwr-p7-KlYJy_eXXNo2Y-15" style="rounded=0;orthogonalLoop=1;jettySize=auto;html=1;exitX=1;exitY=0.3333333333333333;exitDx=0;exitDy=0;exitPerimeter=0;endArrow=none;endFill=0;" parent="1" source="fwr-p7-KlYJy_eXXNo2Y-5" target="fwr-p7-KlYJy_eXXNo2Y-10" edge="1">
          <mxGeometry relative="1" as="geometry" />
        </mxCell>
        <mxCell id="fwr-p7-KlYJy_eXXNo2Y-5" value="관리자&lt;br&gt;" style="shape=umlActor;verticalLabelPosition=bottom;verticalAlign=top;html=1;outlineConnect=0;" parent="1" vertex="1">
          <mxGeometry x="40" y="360" width="40" height="80" as="geometry" />
        </mxCell>
        <mxCell id="fwr-p7-KlYJy_eXXNo2Y-6" value="회원등록" style="ellipse;whiteSpace=wrap;html=1;fillColor=#fff2cc;strokeColor=#d6b656;" parent="1" vertex="1">
          <mxGeometry x="230" y="90" width="140" height="70" as="geometry" />
        </mxCell>
        <mxCell id="fwr-p7-KlYJy_eXXNo2Y-20" value="" style="edgeStyle=orthogonalEdgeStyle;rounded=0;orthogonalLoop=1;jettySize=auto;html=1;dashed=1;" parent="1" source="fwr-p7-KlYJy_eXXNo2Y-7" target="fwr-p7-KlYJy_eXXNo2Y-19" edge="1">
          <mxGeometry relative="1" as="geometry" />
        </mxCell>
        <mxCell id="fwr-p7-KlYJy_eXXNo2Y-21" value="&amp;lt;&amp;lt;include&amp;gt;&amp;gt;" style="edgeLabel;html=1;align=center;verticalAlign=middle;resizable=0;points=[];" parent="fwr-p7-KlYJy_eXXNo2Y-20" vertex="1" connectable="0">
          <mxGeometry x="0.312" y="3" relative="1" as="geometry">
            <mxPoint x="-22" y="3" as="offset" />
          </mxGeometry>
        </mxCell>
        <mxCell id="fwr-p7-KlYJy_eXXNo2Y-7" value="회원정보수정" style="ellipse;whiteSpace=wrap;html=1;fillColor=#fff2cc;strokeColor=#d6b656;" parent="1" vertex="1">
          <mxGeometry x="230" y="170" width="140" height="70" as="geometry" />
        </mxCell>
        <mxCell id="fwr-p7-KlYJy_eXXNo2Y-8" value="회원탈퇴" style="ellipse;whiteSpace=wrap;html=1;fillColor=#fff2cc;strokeColor=#d6b656;" parent="1" vertex="1">
          <mxGeometry x="230" y="250" width="140" height="70" as="geometry" />
        </mxCell>
        <mxCell id="fwr-p7-KlYJy_eXXNo2Y-9" value="회원정보보기" style="ellipse;whiteSpace=wrap;html=1;fillColor=#fff2cc;strokeColor=#d6b656;" parent="1" vertex="1">
          <mxGeometry x="230" y="330" width="140" height="70" as="geometry" />
        </mxCell>
        <mxCell id="fwr-p7-KlYJy_eXXNo2Y-10" value="회원정보조회" style="ellipse;whiteSpace=wrap;html=1;fillColor=#fff2cc;strokeColor=#d6b656;" parent="1" vertex="1">
          <mxGeometry x="230" y="540" width="140" height="70" as="geometry" />
        </mxCell>
        <mxCell id="fwr-p7-KlYJy_eXXNo2Y-19" value="로그인" style="ellipse;whiteSpace=wrap;html=1;fillColor=#fff2cc;strokeColor=#d6b656;" parent="1" vertex="1">
          <mxGeometry x="570" y="170" width="140" height="70" as="geometry" />
        </mxCell>
        <mxCell id="fwr-p7-KlYJy_eXXNo2Y-25" style="rounded=0;orthogonalLoop=1;jettySize=auto;html=1;exitX=0;exitY=0.5;exitDx=0;exitDy=0;dashed=1;" parent="1" source="fwr-p7-KlYJy_eXXNo2Y-22" edge="1">
          <mxGeometry relative="1" as="geometry">
            <mxPoint x="370" y="365" as="targetPoint" />
          </mxGeometry>
        </mxCell>
        <mxCell id="fwr-p7-KlYJy_eXXNo2Y-27" value="&amp;lt;&amp;lt;extends&amp;gt;&amp;gt;" style="edgeLabel;html=1;align=center;verticalAlign=middle;resizable=0;points=[];" parent="fwr-p7-KlYJy_eXXNo2Y-25" vertex="1" connectable="0">
          <mxGeometry x="-0.236" y="-4" relative="1" as="geometry">
            <mxPoint x="-4" y="4" as="offset" />
          </mxGeometry>
        </mxCell>
        <mxCell id="fwr-p7-KlYJy_eXXNo2Y-22" value="나의등급보기" style="ellipse;whiteSpace=wrap;html=1;fillColor=#fff2cc;strokeColor=#d6b656;" parent="1" vertex="1">
          <mxGeometry x="570" y="300" width="140" height="70" as="geometry" />
        </mxCell>
        <mxCell id="fwr-p7-KlYJy_eXXNo2Y-26" style="rounded=0;orthogonalLoop=1;jettySize=auto;html=1;exitX=0;exitY=0.5;exitDx=0;exitDy=0;entryX=1;entryY=0.5;entryDx=0;entryDy=0;dashed=1;" parent="1" source="fwr-p7-KlYJy_eXXNo2Y-23" target="fwr-p7-KlYJy_eXXNo2Y-9" edge="1">
          <mxGeometry relative="1" as="geometry" />
        </mxCell>
        <mxCell id="fwr-p7-KlYJy_eXXNo2Y-28" value="&amp;lt;&amp;lt;extends&amp;gt;&amp;gt;" style="edgeLabel;html=1;align=center;verticalAlign=middle;resizable=0;points=[];" parent="fwr-p7-KlYJy_eXXNo2Y-26" vertex="1" connectable="0">
          <mxGeometry x="-0.1324" y="4" relative="1" as="geometry">
            <mxPoint x="-1" y="-4" as="offset" />
          </mxGeometry>
        </mxCell>
        <mxCell id="fwr-p7-KlYJy_eXXNo2Y-23" value="포인트점수확인하기" style="ellipse;whiteSpace=wrap;html=1;fillColor=#fff2cc;strokeColor=#d6b656;" parent="1" vertex="1">
          <mxGeometry x="570" y="380" width="140" height="70" as="geometry" />
        </mxCell>
        <mxCell id="fwr-p7-KlYJy_eXXNo2Y-29" value="DBMS" style="html=1;dropTarget=0;whiteSpace=wrap;" parent="1" vertex="1">
          <mxGeometry x="827" y="220" width="100" height="180" as="geometry" />
        </mxCell>
        <mxCell id="fwr-p7-KlYJy_eXXNo2Y-30" value="" style="shape=module;jettyWidth=8;jettyHeight=4;" parent="fwr-p7-KlYJy_eXXNo2Y-29" vertex="1">
          <mxGeometry x="1" width="20" height="20" relative="1" as="geometry">
            <mxPoint x="-27" y="7" as="offset" />
          </mxGeometry>
        </mxCell>
        <mxCell id="fwr-p7-KlYJy_eXXNo2Y-31" value="name" style="endArrow=none;endFill=0;html=1;align=left;verticalAlign=top;rounded=0;exitX=1;exitY=0.5;exitDx=0;exitDy=0;" parent="1" source="fwr-p7-KlYJy_eXXNo2Y-8" target="fwr-p7-KlYJy_eXXNo2Y-29" edge="1">
          <mxGeometry x="-1" relative="1" as="geometry">
            <mxPoint x="380" y="285" as="sourcePoint" />
            <mxPoint x="525" y="284.5" as="targetPoint" />
          </mxGeometry>
        </mxCell>
        <mxCell id="fwr-p7-KlYJy_eXXNo2Y-32" value="1" style="edgeLabel;resizable=0;html=1;align=left;verticalAlign=bottom;" parent="fwr-p7-KlYJy_eXXNo2Y-31" connectable="0" vertex="1">
          <mxGeometry x="-1" relative="1" as="geometry" />
        </mxCell>
      </root>
    </mxGraphModel>
  </diagram>
</mxfile>
